<svg version="1.1" id="Layer_1" xmlns="http://www.w3.org/2000/svg" xmlns:xlink="http://www.w3.org/1999/xlink" x="0px" y="0px"
	 width="100%" viewBox="0 0 64 64" enable-background="new 0 0 64 64" xml:space="preserve">
<path fill="#7C71E6" opacity="1.000000" stroke="none" 
	d="
M43.684929,1.227446 
	C50.333332,1.000000 56.667156,0.965111 62.999241,1.053981 
	C63.632313,1.062866 65.152664,0.028007 65.000000,2.500000 
	C62.258350,5.175932 59.021019,3.955422 56.014351,4.325243 
	C54.048199,4.567079 51.681599,3.501358 50.349419,6.310901 
	C51.845554,12.231608 54.986591,17.068148 57.481651,22.599543 
	C57.681259,23.444689 57.659939,23.936100 57.368416,24.749889 
	C56.180294,25.594357 55.116859,25.389921 54.347397,24.803751 
	C47.121605,19.299171 39.427132,14.353749 33.308800,7.058457 
	C34.794632,1.400375 39.334827,1.916940 43.684929,1.227446 
z"/>
<path fill="#7C70E6" opacity="1.000000" stroke="none" 
	d="
M64.773666,38.689381 
	C65.000000,39.444447 65.000000,39.888889 65.000000,40.666668 
	C63.807301,48.699295 64.869881,56.454163 64.214516,64.585991 
	C62.933331,65.000000 61.866661,65.000000 60.399994,65.000000 
	C58.772785,63.642769 59.574471,62.290474 59.928814,60.878979 
	C60.925556,56.908562 61.273304,52.916859 59.522762,48.879456 
	C54.387486,49.586334 50.694492,53.437538 45.362671,53.488518 
	C43.817978,51.792759 44.641201,50.468884 45.622616,49.352280 
	C50.393448,43.924240 54.477283,37.938869 59.673256,32.443901 
	C63.868126,32.607807 64.210808,35.490993 64.773666,38.689381 
z"/>
<path fill="#AB98D8" opacity="1.000000" stroke="none" 
	d="
M58.724586,47.405338 
	C60.460720,46.996223 62.042511,47.019657 61.954533,49.167400 
	C61.747135,54.230274 63.106125,59.505737 60.005913,64.598480 
	C58.285641,65.000000 56.571285,65.000000 54.428463,65.000000 
	C52.639183,63.438797 51.178005,62.822205 49.235535,64.759422 
	C44.975456,65.000000 40.950912,65.000000 36.463184,65.000000 
	C35.204304,64.071213 34.936935,63.003658 35.298042,61.398270 
	C36.572086,59.137501 38.405624,58.396915 40.795326,57.818474 
	C44.023598,57.500111 46.848270,57.651157 49.669582,57.604614 
	C55.813488,57.503258 56.595802,56.832043 57.660282,50.596569 
	C57.829952,49.602695 58.076706,48.653690 58.724586,47.405338 
z"/>
<path fill="#FFFFFF" opacity="1.000000" stroke="none" 
	d="
M2.289439,64.620285 
	C-0.052012,64.113197 1.066728,62.324791 1.061110,61.037899 
	C0.973743,41.025558 1.000000,21.012722 1.500000,1.000000 
	C2.158257,1.163311 2.316514,1.326622 2.711444,1.739066 
	C3.603781,2.671369 4.161609,3.427562 4.778222,4.592394 
	C5.343817,6.447823 5.331639,7.998857 5.366838,9.948557 
	C5.408189,12.829248 5.535903,15.312309 4.935908,18.172398 
	C4.425850,19.621441 3.585919,20.472759 3.465326,22.085155 
	C3.391581,35.210381 3.425428,47.896156 3.366386,61.053783 
	C3.287050,62.485794 3.108670,63.413101 2.289439,64.620285 
z"/>
<path fill="#877ADF" opacity="1.000000" stroke="none" 
	d="
M2.468533,65.000000 
	C2.010233,64.246597 2.020465,63.493187 2.094670,62.368446 
	C2.564957,61.614895 3.020595,61.305317 3.921131,60.951355 
	C6.456552,60.512794 8.612463,60.690453 11.148690,60.635216 
	C13.928232,60.417488 16.603642,61.450947 18.834091,58.840668 
	C21.553993,57.752182 22.779804,59.072540 23.785137,61.431927 
	C24.035484,62.707287 23.930727,63.536007 23.249863,64.655823 
	C16.312355,65.000000 9.624711,65.000000 2.468533,65.000000 
z"/>
<path fill="#A694DF" opacity="1.000000" stroke="none" 
	d="
M35.889221,60.753395 
	C35.995010,62.159275 35.997936,63.192261 36.000431,64.612625 
	C33.299988,65.000000 30.599974,65.000000 27.449980,65.000000 
	C26.459400,64.416389 26.227785,63.726681 26.398643,62.577316 
	C27.551477,60.808834 29.283537,60.228127 30.764606,58.756340 
	C33.084728,58.048271 34.584049,58.831944 35.889221,60.753395 
z"/>
<path fill="#A694DE" opacity="1.000000" stroke="none" 
	d="
M49.341843,7.371020 
	C47.399414,4.031820 48.860027,3.009329 51.846066,3.013387 
	C55.919472,3.018924 59.992897,3.010612 64.533157,3.004119 
	C65.000000,4.066669 65.000000,5.133338 65.000000,6.600004 
	C64.407959,7.533003 63.711849,7.761892 62.566486,7.619621 
	C59.316971,5.172851 56.387905,3.829487 52.988617,7.434013 
	C51.668392,8.024739 50.668873,8.043643 49.341843,7.371020 
z"/>
<path fill="#BAA5E0" opacity="1.000000" stroke="none" 
	d="
M65.000000,38.541931 
	C63.360111,37.048260 63.103802,34.087143 60.143936,32.756760 
	C58.620636,31.250294 58.731239,29.643551 59.294937,27.627430 
	C59.799500,26.812487 60.235859,26.520863 61.172104,26.353848 
	C62.634377,26.427719 63.595013,26.791414 64.706612,27.749569 
	C65.000000,31.361288 65.000000,34.722576 65.000000,38.541931 
z"/>
<path fill="#8E80D4" opacity="1.000000" stroke="none" 
	d="
M43.536816,1.000000 
	C40.852650,3.011312 36.349697,2.467779 34.076813,6.576976 
	C32.356682,8.170079 31.410826,7.012037 30.289700,5.460839 
	C29.812254,3.892714 29.873438,2.764465 30.743973,1.348672 
	C35.024544,1.000000 39.049088,1.000000 43.536816,1.000000 
z"/>
<path fill="#8B7DD5" opacity="1.000000" stroke="none" 
	d="
M3.716321,4.560782 
	C1.973232,4.452277 2.119085,3.470774 2.106978,2.293085 
	C2.278938,1.791313 2.396893,1.610390 2.757424,1.214734 
	C6.692909,1.000000 10.385818,1.000000 14.539364,1.000000 
	C15.644859,1.855685 15.761262,2.784359 15.053478,4.149172 
	C11.216231,5.893622 7.710320,6.085466 3.716321,4.560782 
z"/>
<path fill="#8276E1" opacity="1.000000" stroke="none" 
	d="
M30.550020,1.000000 
	C30.997482,2.088317 30.994967,3.176633 30.985928,4.673018 
	C30.743778,5.209117 30.508152,5.337149 29.871382,5.498352 
	C27.099588,5.135418 24.610779,5.635215 22.006535,4.329176 
	C21.262154,3.298907 21.218193,2.502672 21.762064,1.341262 
	C24.700014,1.000000 27.400026,1.000000 30.550020,1.000000 
z"/>
<path fill="#9E8EE4" opacity="1.000000" stroke="none" 
	d="
M64.606369,12.755796 
	C65.000000,15.700013 65.000000,18.400026 65.000000,21.550020 
	C64.223297,22.623432 63.357002,22.778782 62.021751,22.237379 
	C60.157330,19.349174 60.395588,16.617783 61.387230,13.451878 
	C62.377201,12.349718 63.253429,12.230020 64.606369,12.755796 
z"/>
<path fill="#9082E5" opacity="1.000000" stroke="none" 
	d="
M64.500000,65.000000 
	C64.254654,57.196960 63.485786,49.376331 64.701180,41.292332 
	C65.000000,49.000000 65.000000,57.000000 64.500000,65.000000 
z"/>
<path fill="#8579DF" opacity="1.000000" stroke="none" 
	d="
M21.562500,1.000000 
	C22.000982,1.740059 22.001966,2.480119 22.004301,3.590205 
	C20.075678,5.743099 17.934906,5.540583 15.363277,4.302811 
	C15.005236,3.233413 15.002633,2.488945 15.000015,1.372238 
	C17.041666,1.000000 19.083334,1.000000 21.562500,1.000000 
z"/>
<path fill="#BAA5E2" opacity="1.000000" stroke="none" 
	d="
M65.000000,12.571538 
	C64.252663,12.996002 63.505329,12.992004 62.384350,12.983367 
	C60.491291,11.381906 60.594135,9.590281 61.693134,7.364791 
	C62.755558,7.008193 63.503700,7.003581 64.625916,6.999484 
	C65.000000,8.714358 65.000000,10.428718 65.000000,12.571538 
z"/>
<path fill="#A18FE4" opacity="1.000000" stroke="none" 
	d="
M61.711441,22.347950 
	C62.762890,22.000034 63.508595,21.999994 64.627151,21.999977 
	C65.000000,23.714357 65.000000,25.428717 65.000000,27.571537 
	C64.133514,27.849693 63.267025,27.699387 62.193634,27.286554 
	C60.914440,25.699244 60.696301,24.259792 61.711441,22.347950 
z"/>
<path fill="#9385E3" opacity="1.000000" stroke="none" 
	d="
M49.416664,65.000000 
	C49.022701,63.530125 49.025970,62.082672 51.105923,62.029243 
	C52.692730,61.988480 53.972996,62.239716 53.990547,64.609894 
	C52.611111,65.000000 51.222221,65.000000 49.416664,65.000000 
z"/>
<path fill="#9081D4" opacity="1.000000" stroke="none" 
	d="
M26.710663,61.787453 
	C27.030643,62.820347 27.013437,63.546803 26.998116,64.636627 
	C25.933331,65.000000 24.866661,65.000000 23.399996,65.000000 
	C23.000267,64.250076 23.000536,63.500153 23.000324,62.375267 
	C23.997536,61.003082 25.149055,61.005245 26.710663,61.787453 
z"/>
<path fill="#8C7ECD" opacity="1.000000" stroke="none" 
	d="
M2.750000,1.000000 
	C2.922829,1.295205 2.769502,1.543340 2.350502,1.858321 
	C2.160983,1.972235 2.036413,1.493416 2.018207,1.246708 
	C2.000000,1.000000 2.500000,1.000000 2.750000,1.000000 
z"/>
<path fill="#F9DBDB" opacity="1.000000" stroke="none" 
	d="
M29.645374,4.987647 
	C29.990349,4.970042 30.486927,5.007747 30.733166,5.044416 
	C31.491898,6.066050 32.152367,6.855217 33.699478,6.906942 
	C41.106289,13.317621 48.479736,19.356981 56.707680,24.793373 
	C57.231655,24.742624 57.411015,24.656218 57.875076,24.661295 
	C58.796139,25.250370 59.262177,25.888685 59.741821,26.864410 
	C59.842220,28.735397 59.868130,30.319277 59.839317,32.290230 
	C55.917416,40.033283 49.539555,45.510719 45.083076,52.742348 
	C45.238956,55.861904 42.988823,57.001759 41.070683,58.766712 
	C39.388195,59.586521 37.989822,60.206398 36.291767,60.976280 
	C34.540234,60.439072 33.088383,59.751858 31.290760,59.086456 
	C27.478159,58.896313 25.606606,56.068085 23.233299,54.189125 
	C20.641075,52.136848 18.106663,50.010315 15.123477,47.900360 
	C12.437064,46.000370 10.023922,44.304928 7.753579,41.897087 
	C6.563252,40.669983 5.591248,39.703537 4.607991,38.293510 
	C4.184192,37.331589 4.115041,36.646900 4.219800,35.605339 
	C4.447777,34.598274 4.695870,33.956730 5.033534,32.982109 
	C5.407796,32.011650 5.759374,31.416573 6.348951,30.558140 
	C11.567262,24.511301 15.953212,18.240936 21.090059,12.132866 
	C22.594688,10.276129 23.897829,8.698783 25.293047,6.755703 
	C26.587074,5.505610 27.842249,4.998832 29.645374,4.987647 
z"/>
<path fill="#443E74" opacity="1.000000" stroke="none" 
	d="
M49.031860,7.514211 
	C50.069237,7.096255 51.132935,7.029719 52.593048,6.912486 
	C56.122181,5.264181 57.532738,7.403276 59.097084,9.974733 
	C59.488258,10.877880 59.673885,11.410596 59.944305,12.366861 
	C60.462593,15.945633 60.751923,19.106968 59.555489,22.606121 
	C58.841137,23.356586 58.294952,23.514376 57.297684,23.246035 
	C53.361404,18.463049 51.779560,12.869502 49.031860,7.514211 
z"/>
<path fill="#4D467A" opacity="1.000000" stroke="none" 
	d="
M56.951454,23.335878 
	C57.340931,23.024750 57.771976,23.010576 58.525406,22.990807 
	C59.508923,23.717464 59.442760,24.417534 58.346603,25.096203 
	C57.938572,25.102329 57.500214,24.952375 57.276257,24.890703 
	C57.032543,24.430298 57.012783,24.031565 56.951454,23.335878 
z"/>
<path fill="#433E74" opacity="1.000000" stroke="none" 
	d="
M41.269382,58.976501 
	C41.025192,56.364803 43.482204,55.454903 44.972305,53.390640 
	C49.776058,51.766773 53.954052,49.380104 58.590858,47.175529 
	C58.938644,48.860905 59.144512,50.689804 58.949360,52.474865 
	C58.510666,56.487598 56.829933,59.267002 52.113407,59.022518 
	C48.668304,58.843933 45.206535,58.986790 41.269382,58.976501 
z"/>
<path fill="#A291CE" opacity="1.000000" stroke="none" 
	d="
M29.720415,4.676478 
	C29.383505,6.401474 27.590746,5.693249 26.488512,6.895798 
	C23.555456,8.704798 20.584372,8.525625 17.678288,8.405249 
	C14.170222,8.259935 10.897748,8.869357 7.448654,10.815649 
	C6.109558,11.100065 5.227252,11.016171 3.955430,10.476418 
	C3.420509,8.674627 3.311580,7.023442 3.214931,4.991376 
	C6.786906,3.432003 10.459680,4.243677 14.540003,3.986093 
	C17.048603,3.980084 19.089365,3.982287 21.567890,3.972361 
	C24.487263,4.101127 26.968872,4.242021 29.720415,4.676478 
z"/>
<path fill="#8C7ECD" opacity="1.000000" stroke="none" 
	d="
M4.871907,34.621422 
	C4.845329,35.722343 4.865159,36.488895 4.907570,37.638222 
	C5.626849,45.767311 6.228804,53.512272 4.315918,61.599136 
	C3.616182,61.979881 3.199627,61.986893 2.470857,61.995510 
	C2.118096,48.640629 2.077551,35.284142 2.099174,21.462605 
	C2.534918,20.661058 2.968742,20.498491 3.802929,20.688320 
	C4.885293,23.486544 4.671307,26.326101 5.689426,29.272430 
	C5.379758,31.166407 4.869408,32.680862 4.871907,34.621422 
z"/>
<path fill="#AE9BD3" opacity="1.000000" stroke="none" 
	d="
M3.426989,10.710039 
	C4.440195,10.223873 5.350952,10.121935 6.713373,10.027603 
	C8.929798,12.479540 8.354596,15.012984 7.220884,17.937180 
	C6.612878,18.783642 6.152150,19.145773 5.168749,19.460520 
	C4.446630,19.433163 4.164045,19.347469 3.732794,18.844532 
	C3.497599,15.982949 3.411070,13.538608 3.426989,10.710039 
z"/>
<path fill="#8B7DD5" opacity="1.000000" stroke="none" 
	d="
M3.222604,18.427124 
	C3.814816,18.555597 4.045505,18.683907 4.651447,18.938572 
	C5.574008,19.811901 5.443019,20.471611 4.385524,21.031013 
	C3.592243,20.999920 3.183269,20.999380 2.467819,20.998198 
	C2.035653,20.042984 1.895785,19.084555 3.222604,18.427124 
z"/>
<path fill="#7C71E5" opacity="1.000000" stroke="none" 
	d="
M14.607914,46.868973 
	C20.907841,49.796715 25.295794,54.722626 30.651381,58.942982 
	C30.911732,61.206093 29.623438,61.933800 27.401955,62.061604 
	C25.968018,62.064007 24.888189,62.034126 23.404102,62.002274 
	C22.250504,60.619465 21.847857,58.855419 19.064274,58.800777 
	C17.070318,56.185760 15.701107,53.789173 14.572826,51.277485 
	C13.951777,49.894962 12.635592,48.459229 14.607914,46.868973 
z"/>
<path fill="#AC98D5" opacity="1.000000" stroke="none" 
	d="
M4.474042,61.980541 
	C4.141814,54.188000 4.250891,46.403122 4.645060,38.319626 
	C5.876326,38.781555 6.822500,39.542114 7.910559,40.576363 
	C8.554556,44.090889 8.379940,47.357758 8.321833,50.609093 
	C8.265309,53.771786 9.191299,56.369270 12.085346,58.553421 
	C12.732110,59.637985 12.776423,60.433376 12.246472,61.588223 
	C9.644135,61.948547 7.279741,61.968380 4.474042,61.980541 
z"/>
<path fill="#AF9CD9" opacity="1.000000" stroke="none" 
	d="
M12.438092,61.950737 
	C12.006885,61.233410 12.005242,60.538101 12.004645,59.494102 
	C13.859581,57.238457 15.995357,57.471695 18.605335,58.602497 
	C18.997498,58.877163 18.968365,58.958496 18.986502,58.997948 
	C18.875525,64.022804 15.041242,61.261757 12.438092,61.950737 
z"/>
<path fill="#A593D3" opacity="1.000000" stroke="none" 
	d="
M57.989616,25.410807 
	C58.271057,24.607861 58.603542,24.113394 58.891907,23.302069 
	C58.877533,19.618019 58.907280,16.250828 58.867142,12.429003 
	C58.682262,11.790080 58.567280,11.605794 58.237022,11.176928 
	C57.627037,8.476483 56.206242,7.148253 53.347992,6.933766 
	C52.963566,5.188131 53.460114,3.686715 55.426716,4.081549 
	C57.660458,4.530015 60.893284,2.168241 61.989658,6.603335 
	C62.006496,8.717839 62.005573,10.422873 62.007679,12.553318 
	C62.008377,15.685637 62.006046,18.392548 62.010452,21.549767 
	C62.010143,23.395037 62.003098,24.789997 61.991394,26.604492 
	C61.504128,27.033100 61.021526,27.042171 60.177612,27.101379 
	C58.974964,26.983383 58.218704,26.709759 57.989616,25.410807 
z"/>
<path fill="#7C71E5" opacity="1.000000" stroke="none" 
	d="
M3.959967,21.364897 
	C4.321811,20.547812 4.642405,20.095165 4.994850,19.353722 
	C5.314994,18.829048 5.603287,18.593168 6.023009,18.107277 
	C9.503376,15.876068 13.017888,14.205855 16.461765,12.404260 
	C18.031389,11.583143 19.669956,10.746209 21.819260,11.824581 
	C17.871260,18.766207 12.573590,24.601147 7.372750,30.905354 
	C6.639007,31.277651 6.205864,31.269934 5.395299,30.520988 
	C4.717837,27.213413 1.816443,24.805441 3.959967,21.364897 
z"/>
<path fill="#443E74" opacity="1.000000" stroke="none" 
	d="
M19.002497,58.509811 
	C16.956045,58.928707 14.914594,58.980251 12.439417,59.088608 
	C8.626945,58.846275 7.236987,56.502445 7.110032,53.606518 
	C6.932038,49.546364 7.260911,45.463982 7.712707,41.120583 
	C10.275477,42.656918 12.498511,44.463779 14.847133,46.570190 
	C13.160277,49.707989 16.400049,51.054901 16.970322,53.210201 
	C17.405125,54.853504 18.939743,56.220150 19.002497,58.509811 
z"/>
<path fill="#453F75" opacity="1.000000" stroke="none" 
	d="
M22.389536,11.946598 
	C18.396862,11.877707 15.671584,14.184638 12.760806,15.855197 
	C10.887559,16.930294 8.991043,17.625862 6.525095,17.886017 
	C7.549390,15.669057 6.795225,13.193933 7.126907,10.446947 
	C10.457643,5.921473 15.071787,7.110052 19.356197,7.016493 
	C21.313898,6.973742 23.273746,7.029229 25.716393,7.040314 
	C25.028738,8.624923 23.857313,10.209379 22.389536,11.946598 
z"/>
<path fill="#AC98D5" opacity="1.000000" stroke="none" 
	d="
M5.123370,34.830231 
	C3.586951,33.529114 3.840447,31.984589 4.742697,30.189621 
	C5.018895,29.968607 5.006778,29.993002 5.014180,29.988640 
	C5.615796,30.667992 5.694324,31.491716 5.784028,32.633999 
	C5.744037,33.516644 5.582639,34.110657 5.123370,34.830231 
z"/>
<path fill="#8C7ECD" opacity="1.000000" stroke="none" 
	d="
M6.028134,32.675323 
	C5.011044,32.396301 5.022590,31.516556 5.018997,30.314001 
	C5.527706,30.265776 6.033829,30.547274 6.805460,30.947567 
	C6.764256,31.520247 6.457544,31.974133 6.028134,32.675323 
z"/>
<path fill="#4D467A" opacity="1.000000" stroke="none" 
	d="
M58.089760,11.147155 
	C58.341343,11.027099 58.587051,11.217268 58.778057,11.738611 
	C58.515148,11.842237 58.301991,11.638102 58.089760,11.147155 
z"/>
</svg>